# xmcd
#
# Track frame offsets:
#	182
#	21257
#	39635
#
# Disc length: 806 seconds
#
# Revision: 5
# Processed by: cddbd v1.5.2PL0 Copyright (c) Steve Scherf et al.
# Submitted via: audiograbber 1.83.01
#
DISCID=1e032403
DTITLE=Gary Barlow - Forever Love (Maxi)
DYEAR=1996
DGENRE=Rock
TTITLE0=Gary Barlow - Forever Love
TTITLE1=Gary Barlow - I Miss It All
TTITLE2=Forever Love (instrumental)
EXTD=
EXTT0=
EXTT1=
EXTT2=
PLAYORDER=
